<svg width="444" height="27" viewBox="0 0 444 27" fill="none" xmlns="http://www.w3.org/2000/svg">
<path d="M150.725 11.7705C150.725 9.98828 151.204 8.59424 152.161 7.58838C153.118 6.57764 154.353 6.07227 155.867 6.07227C156.858 6.07227 157.751 6.30908 158.547 6.78271C159.343 7.25635 159.949 7.91797 160.364 8.76758C160.784 9.6123 160.994 10.5718 160.994 11.646C160.994 12.7349 160.774 13.709 160.334 14.5684C159.895 15.4277 159.272 16.0796 158.467 16.5239C157.661 16.9634 156.792 17.1831 155.859 17.1831C154.849 17.1831 153.945 16.939 153.149 16.4507C152.354 15.9624 151.75 15.2959 151.34 14.4512C150.93 13.6064 150.725 12.7129 150.725 11.7705ZM152.19 11.7925C152.19 13.0864 152.537 14.1069 153.23 14.854C153.928 15.5962 154.802 15.9673 155.852 15.9673C156.921 15.9673 157.8 15.5913 158.489 14.8394C159.182 14.0874 159.529 13.0205 159.529 11.6387C159.529 10.7646 159.38 10.0029 159.082 9.35352C158.789 8.69922 158.357 8.19385 157.786 7.8374C157.219 7.47607 156.582 7.29541 155.874 7.29541C154.868 7.29541 154.001 7.64209 153.274 8.33545C152.551 9.02393 152.19 10.1763 152.19 11.7925ZM167.761 17V15.8574C167.156 16.7363 166.333 17.1758 165.293 17.1758C164.834 17.1758 164.404 17.0879 164.004 16.9121C163.608 16.7363 163.313 16.5166 163.118 16.2529C162.927 15.9844 162.793 15.6572 162.715 15.2715C162.661 15.0127 162.634 14.6025 162.634 14.041V9.22168H163.953V13.5356C163.953 14.2241 163.979 14.688 164.033 14.9272C164.116 15.2739 164.292 15.5474 164.561 15.7476C164.829 15.9429 165.161 16.0405 165.557 16.0405C165.952 16.0405 166.323 15.9404 166.67 15.7402C167.017 15.5352 167.261 15.2593 167.402 14.9126C167.549 14.561 167.622 14.0532 167.622 13.3892V9.22168H168.94V17H167.761ZM170.999 17V9.22168H172.185V10.4009C172.488 9.84912 172.766 9.48535 173.02 9.30957C173.279 9.13379 173.562 9.0459 173.87 9.0459C174.314 9.0459 174.766 9.1875 175.225 9.4707L174.771 10.6938C174.448 10.5034 174.126 10.4082 173.804 10.4082C173.516 10.4082 173.257 10.4961 173.027 10.6719C172.798 10.8428 172.634 11.082 172.537 11.3896C172.39 11.8584 172.317 12.3711 172.317 12.9277V17H170.999ZM180.183 19.981V9.22168H181.384V10.2324C181.667 9.83691 181.987 9.5415 182.344 9.34619C182.7 9.146 183.132 9.0459 183.64 9.0459C184.304 9.0459 184.89 9.2168 185.398 9.55859C185.906 9.90039 186.289 10.3838 186.548 11.0088C186.807 11.6289 186.936 12.3101 186.936 13.0522C186.936 13.8481 186.792 14.5659 186.504 15.2056C186.221 15.8403 185.806 16.3286 185.259 16.6704C184.717 17.0073 184.146 17.1758 183.545 17.1758C183.105 17.1758 182.71 17.083 182.358 16.8975C182.012 16.7119 181.726 16.4775 181.501 16.1943V19.981H180.183ZM181.377 13.1548C181.377 14.1558 181.58 14.8955 181.985 15.374C182.39 15.8525 182.881 16.0918 183.457 16.0918C184.043 16.0918 184.543 15.8452 184.958 15.3521C185.378 14.854 185.588 14.085 185.588 13.0449C185.588 12.0537 185.383 11.3115 184.973 10.8184C184.568 10.3252 184.082 10.0786 183.516 10.0786C182.954 10.0786 182.456 10.3423 182.021 10.8696C181.592 11.3921 181.377 12.1538 181.377 13.1548ZM193.857 14.4951L195.22 14.6636C195.005 15.4595 194.607 16.0771 194.026 16.5166C193.445 16.9561 192.703 17.1758 191.799 17.1758C190.662 17.1758 189.758 16.8267 189.089 16.1284C188.425 15.4253 188.093 14.4414 188.093 13.1768C188.093 11.8682 188.43 10.8525 189.104 10.1299C189.778 9.40723 190.652 9.0459 191.726 9.0459C192.766 9.0459 193.616 9.3999 194.275 10.1079C194.934 10.8159 195.264 11.812 195.264 13.0962C195.264 13.1743 195.261 13.2915 195.256 13.4478H189.456C189.504 14.3022 189.746 14.9565 190.181 15.4106C190.615 15.8647 191.157 16.0918 191.807 16.0918C192.29 16.0918 192.703 15.9648 193.044 15.7109C193.386 15.457 193.657 15.0518 193.857 14.4951ZM189.529 12.3638H193.872C193.813 11.7095 193.647 11.2188 193.374 10.8916C192.954 10.3838 192.41 10.1299 191.741 10.1299C191.135 10.1299 190.625 10.3325 190.21 10.7378C189.8 11.1431 189.573 11.6851 189.529 12.3638ZM199.761 15.8208L199.951 16.9854C199.58 17.0635 199.248 17.1025 198.955 17.1025C198.477 17.1025 198.105 17.0269 197.842 16.8755C197.578 16.7241 197.393 16.5264 197.285 16.2822C197.178 16.0332 197.124 15.5132 197.124 14.7222V10.2471H196.157V9.22168H197.124V7.29541L198.435 6.50439V9.22168H199.761V10.2471H198.435V14.7954C198.435 15.1714 198.457 15.4131 198.501 15.5205C198.55 15.6279 198.625 15.7134 198.728 15.7769C198.835 15.8403 198.987 15.8721 199.182 15.8721C199.329 15.8721 199.521 15.855 199.761 15.8208ZM200.53 14.6782L201.833 14.4731C201.907 14.9956 202.109 15.396 202.441 15.6743C202.778 15.9526 203.247 16.0918 203.848 16.0918C204.453 16.0918 204.902 15.9697 205.195 15.7256C205.488 15.4766 205.635 15.186 205.635 14.854C205.635 14.5562 205.505 14.3218 205.247 14.1509C205.066 14.0337 204.617 13.8848 203.899 13.7041C202.932 13.46 202.261 13.25 201.885 13.0742C201.514 12.8936 201.23 12.647 201.035 12.3345C200.845 12.0171 200.75 11.668 200.75 11.2871C200.75 10.9404 200.828 10.6206 200.984 10.3276C201.145 10.0298 201.362 9.7832 201.636 9.58789C201.841 9.43652 202.119 9.30957 202.471 9.20703C202.827 9.09961 203.208 9.0459 203.613 9.0459C204.224 9.0459 204.758 9.13379 205.217 9.30957C205.681 9.48535 206.023 9.72461 206.243 10.0273C206.462 10.3252 206.614 10.7256 206.697 11.2285L205.408 11.4043C205.349 11.0039 205.178 10.6914 204.895 10.4668C204.617 10.2422 204.221 10.1299 203.708 10.1299C203.103 10.1299 202.671 10.23 202.412 10.4302C202.153 10.6304 202.024 10.8647 202.024 11.1333C202.024 11.3042 202.078 11.458 202.185 11.5947C202.292 11.7363 202.461 11.8535 202.69 11.9463C202.822 11.9951 203.21 12.1074 203.855 12.2832C204.788 12.5322 205.437 12.7373 205.803 12.8984C206.174 13.0547 206.465 13.2842 206.675 13.5869C206.885 13.8896 206.99 14.2656 206.99 14.7148C206.99 15.1543 206.86 15.5693 206.602 15.96C206.348 16.3457 205.979 16.646 205.496 16.8608C205.012 17.0708 204.465 17.1758 203.855 17.1758C202.844 17.1758 202.073 16.9658 201.541 16.5459C201.013 16.126 200.676 15.5034 200.53 14.6782Z" fill="#CDCDCD"/>
<path d="M0.978027 17L5.10156 6.2627H6.63232L11.0269 17H9.4082L8.15576 13.748H3.66602L2.48682 17H0.978027ZM4.07617 12.5908H7.71631L6.5957 9.61719C6.25391 8.71387 6 7.97168 5.83398 7.39062C5.69727 8.0791 5.50439 8.7627 5.25537 9.44141L4.07617 12.5908ZM13.2095 17H11.9863V6.2627H13.3047V10.0933C13.8613 9.39502 14.5718 9.0459 15.436 9.0459C15.9146 9.0459 16.3662 9.14355 16.791 9.33887C17.2207 9.5293 17.5723 9.80029 17.8457 10.1519C18.124 10.4985 18.3413 10.9185 18.4976 11.4116C18.6538 11.9048 18.7319 12.4321 18.7319 12.9937C18.7319 14.3267 18.4023 15.3569 17.7432 16.0845C17.084 16.812 16.293 17.1758 15.3701 17.1758C14.4521 17.1758 13.7319 16.7925 13.2095 16.0259V17ZM13.1948 13.0522C13.1948 13.9849 13.3218 14.6587 13.5757 15.0737C13.9907 15.7524 14.5522 16.0918 15.2603 16.0918C15.8364 16.0918 16.3345 15.8428 16.7544 15.3447C17.1743 14.8418 17.3843 14.0947 17.3843 13.1035C17.3843 12.0879 17.1816 11.3384 16.7764 10.855C16.376 10.3716 15.8901 10.1299 15.3188 10.1299C14.7427 10.1299 14.2446 10.3813 13.8247 10.8843C13.4048 11.3823 13.1948 12.105 13.1948 13.0522ZM19.8525 13.1108C19.8525 11.6704 20.2529 10.6035 21.0537 9.91016C21.7227 9.33398 22.5381 9.0459 23.5 9.0459C24.5693 9.0459 25.4434 9.39746 26.1221 10.1006C26.8008 10.7988 27.1401 11.7656 27.1401 13.001C27.1401 14.002 26.9888 14.7905 26.686 15.3667C26.3882 15.938 25.9512 16.3823 25.375 16.6997C24.8037 17.0171 24.1787 17.1758 23.5 17.1758C22.4111 17.1758 21.5298 16.8267 20.856 16.1284C20.187 15.4302 19.8525 14.4243 19.8525 13.1108ZM21.2075 13.1108C21.2075 14.1069 21.4248 14.854 21.8594 15.3521C22.2939 15.8452 22.8408 16.0918 23.5 16.0918C24.1543 16.0918 24.6987 15.8428 25.1333 15.3447C25.5679 14.8467 25.7852 14.0874 25.7852 13.0669C25.7852 12.105 25.5654 11.3774 25.126 10.8843C24.6914 10.3862 24.1494 10.1372 23.5 10.1372C22.8408 10.1372 22.2939 10.3838 21.8594 10.877C21.4248 11.3701 21.2075 12.1147 21.2075 13.1108ZM33.7905 17V15.8574C33.1851 16.7363 32.3623 17.1758 31.3223 17.1758C30.8633 17.1758 30.4336 17.0879 30.0332 16.9121C29.6377 16.7363 29.3423 16.5166 29.147 16.2529C28.9565 15.9844 28.8223 15.6572 28.7441 15.2715C28.6904 15.0127 28.6636 14.6025 28.6636 14.041V9.22168H29.9819V13.5356C29.9819 14.2241 30.0088 14.688 30.0625 14.9272C30.1455 15.2739 30.3213 15.5474 30.5898 15.7476C30.8584 15.9429 31.1904 16.0405 31.5859 16.0405C31.9814 16.0405 32.3525 15.9404 32.6992 15.7402C33.0459 15.5352 33.29 15.2593 33.4316 14.9126C33.5781 14.561 33.6514 14.0532 33.6514 13.3892V9.22168H34.9697V17H33.7905ZM39.9209 15.8208L40.1113 16.9854C39.7402 17.0635 39.4082 17.1025 39.1152 17.1025C38.6367 17.1025 38.2656 17.0269 38.002 16.8755C37.7383 16.7241 37.5527 16.5264 37.4453 16.2822C37.3379 16.0332 37.2842 15.5132 37.2842 14.7222V10.2471H36.3174V9.22168H37.2842V7.29541L38.5952 6.50439V9.22168H39.9209V10.2471H38.5952V14.7954C38.5952 15.1714 38.6172 15.4131 38.6611 15.5205C38.71 15.6279 38.7856 15.7134 38.8882 15.7769C38.9956 15.8403 39.147 15.8721 39.3423 15.8721C39.4888 15.8721 39.6816 15.855 39.9209 15.8208ZM48.2705 15.8208L48.4609 16.9854C48.0898 17.0635 47.7578 17.1025 47.4648 17.1025C46.9863 17.1025 46.6152 17.0269 46.3516 16.8755C46.0879 16.7241 45.9023 16.5264 45.7949 16.2822C45.6875 16.0332 45.6338 15.5132 45.6338 14.7222V10.2471H44.667V9.22168H45.6338V7.29541L46.9448 6.50439V9.22168H48.2705V10.2471H46.9448V14.7954C46.9448 15.1714 46.9668 15.4131 47.0107 15.5205C47.0596 15.6279 47.1353 15.7134 47.2378 15.7769C47.3452 15.8403 47.4966 15.8721 47.6919 15.8721C47.8384 15.8721 48.0312 15.855 48.2705 15.8208ZM49.5669 17V6.2627H50.8853V10.1152C51.5005 9.40234 52.2769 9.0459 53.2144 9.0459C53.7905 9.0459 54.291 9.16064 54.7158 9.39014C55.1406 9.61475 55.4434 9.92725 55.624 10.3276C55.8096 10.728 55.9023 11.3091 55.9023 12.0708V17H54.584V12.0708C54.584 11.4116 54.4399 10.9331 54.1519 10.6353C53.8687 10.3325 53.4658 10.1812 52.9434 10.1812C52.5527 10.1812 52.1841 10.2837 51.8374 10.4888C51.4956 10.689 51.2515 10.9624 51.105 11.3091C50.9585 11.6558 50.8853 12.1343 50.8853 12.7446V17H49.5669ZM63.2412 14.4951L64.6035 14.6636C64.3887 15.4595 63.9907 16.0771 63.4097 16.5166C62.8286 16.9561 62.0864 17.1758 61.1831 17.1758C60.0454 17.1758 59.1421 16.8267 58.4731 16.1284C57.8091 15.4253 57.4771 14.4414 57.4771 13.1768C57.4771 11.8682 57.814 10.8525 58.4878 10.1299C59.1616 9.40723 60.0356 9.0459 61.1099 9.0459C62.1499 9.0459 62.9995 9.3999 63.6587 10.1079C64.3179 10.8159 64.6475 11.812 64.6475 13.0962C64.6475 13.1743 64.645 13.2915 64.6401 13.4478H58.8394C58.8882 14.3022 59.1299 14.9565 59.5645 15.4106C59.999 15.8647 60.541 16.0918 61.1904 16.0918C61.6738 16.0918 62.0864 15.9648 62.4282 15.7109C62.77 15.457 63.041 15.0518 63.2412 14.4951ZM58.9126 12.3638H63.2559C63.1973 11.7095 63.0312 11.2188 62.7578 10.8916C62.3379 10.3838 61.7935 10.1299 61.1245 10.1299C60.519 10.1299 60.0088 10.3325 59.5938 10.7378C59.1836 11.1431 58.9565 11.6851 58.9126 12.3638ZM69.9136 14.6782L71.2173 14.4731C71.2905 14.9956 71.4932 15.396 71.8252 15.6743C72.1621 15.9526 72.6309 16.0918 73.2314 16.0918C73.8369 16.0918 74.2861 15.9697 74.5791 15.7256C74.8721 15.4766 75.0186 15.186 75.0186 14.854C75.0186 14.5562 74.8892 14.3218 74.6304 14.1509C74.4497 14.0337 74.0005 13.8848 73.2827 13.7041C72.3159 13.46 71.6445 13.25 71.2686 13.0742C70.8975 12.8936 70.6143 12.647 70.4189 12.3345C70.2285 12.0171 70.1333 11.668 70.1333 11.2871C70.1333 10.9404 70.2114 10.6206 70.3677 10.3276C70.5288 10.0298 70.7461 9.7832 71.0195 9.58789C71.2246 9.43652 71.5029 9.30957 71.8545 9.20703C72.2109 9.09961 72.5918 9.0459 72.9971 9.0459C73.6074 9.0459 74.1421 9.13379 74.6011 9.30957C75.0649 9.48535 75.4067 9.72461 75.6265 10.0273C75.8462 10.3252 75.9976 10.7256 76.0806 11.2285L74.7915 11.4043C74.7329 11.0039 74.562 10.6914 74.2788 10.4668C74.0005 10.2422 73.605 10.1299 73.0923 10.1299C72.4868 10.1299 72.0547 10.23 71.7959 10.4302C71.5371 10.6304 71.4077 10.8647 71.4077 11.1333C71.4077 11.3042 71.4614 11.458 71.5688 11.5947C71.6763 11.7363 71.8447 11.8535 72.0742 11.9463C72.2061 11.9951 72.5942 12.1074 73.2388 12.2832C74.1714 12.5322 74.8208 12.7373 75.187 12.8984C75.5581 13.0547 75.8486 13.2842 76.0586 13.5869C76.2686 13.8896 76.3735 14.2656 76.3735 14.7148C76.3735 15.1543 76.2441 15.5693 75.9854 15.96C75.7314 16.3457 75.3628 16.646 74.8794 16.8608C74.396 17.0708 73.8491 17.1758 73.2388 17.1758C72.228 17.1758 71.4565 16.9658 70.9243 16.5459C70.397 16.126 70.0601 15.5034 69.9136 14.6782ZM77.9409 17V6.2627H79.2593V10.1152C79.8745 9.40234 80.6509 9.0459 81.5884 9.0459C82.1646 9.0459 82.665 9.16064 83.0898 9.39014C83.5146 9.61475 83.8174 9.92725 83.998 10.3276C84.1836 10.728 84.2764 11.3091 84.2764 12.0708V17H82.958V12.0708C82.958 11.4116 82.814 10.9331 82.5259 10.6353C82.2427 10.3325 81.8398 10.1812 81.3174 10.1812C80.9268 10.1812 80.5581 10.2837 80.2114 10.4888C79.8696 10.689 79.6255 10.9624 79.479 11.3091C79.3325 11.6558 79.2593 12.1343 79.2593 12.7446V17H77.9409ZM91.6152 14.4951L92.9775 14.6636C92.7627 15.4595 92.3647 16.0771 91.7837 16.5166C91.2026 16.9561 90.4604 17.1758 89.5571 17.1758C88.4194 17.1758 87.5161 16.8267 86.8472 16.1284C86.1831 15.4253 85.8511 14.4414 85.8511 13.1768C85.8511 11.8682 86.188 10.8525 86.8618 10.1299C87.5356 9.40723 88.4097 9.0459 89.4839 9.0459C90.5239 9.0459 91.3735 9.3999 92.0327 10.1079C92.6919 10.8159 93.0215 11.812 93.0215 13.0962C93.0215 13.1743 93.019 13.2915 93.0142 13.4478H87.2134C87.2622 14.3022 87.5039 14.9565 87.9385 15.4106C88.373 15.8647 88.915 16.0918 89.5645 16.0918C90.0479 16.0918 90.4604 15.9648 90.8022 15.7109C91.144 15.457 91.415 15.0518 91.6152 14.4951ZM87.2866 12.3638H91.6299C91.5713 11.7095 91.4053 11.2188 91.1318 10.8916C90.7119 10.3838 90.1675 10.1299 89.4985 10.1299C88.8931 10.1299 88.3828 10.3325 87.9678 10.7378C87.5576 11.1431 87.3306 11.6851 87.2866 12.3638ZM94.6108 17V6.2627H95.9292V17H94.6108ZM100.858 15.8208L101.049 16.9854C100.678 17.0635 100.346 17.1025 100.053 17.1025C99.5742 17.1025 99.2031 17.0269 98.9395 16.8755C98.6758 16.7241 98.4902 16.5264 98.3828 16.2822C98.2754 16.0332 98.2217 15.5132 98.2217 14.7222V10.2471H97.2549V9.22168H98.2217V7.29541L99.5327 6.50439V9.22168H100.858V10.2471H99.5327V14.7954C99.5327 15.1714 99.5547 15.4131 99.5986 15.5205C99.6475 15.6279 99.7231 15.7134 99.8257 15.7769C99.9331 15.8403 100.084 15.8721 100.28 15.8721C100.426 15.8721 100.619 15.855 100.858 15.8208ZM107.479 14.4951L108.842 14.6636C108.627 15.4595 108.229 16.0771 107.648 16.5166C107.067 16.9561 106.325 17.1758 105.421 17.1758C104.284 17.1758 103.38 16.8267 102.711 16.1284C102.047 15.4253 101.715 14.4414 101.715 13.1768C101.715 11.8682 102.052 10.8525 102.726 10.1299C103.4 9.40723 104.274 9.0459 105.348 9.0459C106.388 9.0459 107.238 9.3999 107.897 10.1079C108.556 10.8159 108.886 11.812 108.886 13.0962C108.886 13.1743 108.883 13.2915 108.878 13.4478H103.078C103.126 14.3022 103.368 14.9565 103.803 15.4106C104.237 15.8647 104.779 16.0918 105.429 16.0918C105.912 16.0918 106.325 15.9648 106.667 15.7109C107.008 15.457 107.279 15.0518 107.479 14.4951ZM103.151 12.3638H107.494C107.436 11.7095 107.27 11.2188 106.996 10.8916C106.576 10.3838 106.032 10.1299 105.363 10.1299C104.757 10.1299 104.247 10.3325 103.832 10.7378C103.422 11.1431 103.195 11.6851 103.151 12.3638ZM110.49 17V9.22168H111.676V10.4009C111.979 9.84912 112.257 9.48535 112.511 9.30957C112.77 9.13379 113.053 9.0459 113.361 9.0459C113.805 9.0459 114.257 9.1875 114.716 9.4707L114.262 10.6938C113.939 10.5034 113.617 10.4082 113.295 10.4082C113.007 10.4082 112.748 10.4961 112.519 10.6719C112.289 10.8428 112.125 11.082 112.028 11.3896C111.881 11.8584 111.808 12.3711 111.808 12.9277V17H110.49Z" fill="#FAFAFA"/>
<rect x="1" y="24" width="114" height="3" fill="#F1CDB3"/>
<path d="M244.201 17V6.2627H245.622V10.6719H251.203V6.2627H252.624V17H251.203V11.939H245.622V17H244.201ZM260.153 14.4951L261.516 14.6636C261.301 15.4595 260.903 16.0771 260.322 16.5166C259.741 16.9561 258.999 17.1758 258.095 17.1758C256.958 17.1758 256.054 16.8267 255.385 16.1284C254.721 15.4253 254.389 14.4414 254.389 13.1768C254.389 11.8682 254.726 10.8525 255.4 10.1299C256.074 9.40723 256.948 9.0459 258.022 9.0459C259.062 9.0459 259.912 9.3999 260.571 10.1079C261.23 10.8159 261.56 11.812 261.56 13.0962C261.56 13.1743 261.557 13.2915 261.552 13.4478H255.751C255.8 14.3022 256.042 14.9565 256.477 15.4106C256.911 15.8647 257.453 16.0918 258.103 16.0918C258.586 16.0918 258.999 15.9648 259.34 15.7109C259.682 15.457 259.953 15.0518 260.153 14.4951ZM255.825 12.3638H260.168C260.109 11.7095 259.943 11.2188 259.67 10.8916C259.25 10.3838 258.706 10.1299 258.037 10.1299C257.431 10.1299 256.921 10.3325 256.506 10.7378C256.096 11.1431 255.869 11.6851 255.825 12.3638ZM263.149 17V6.2627H264.467V17H263.149ZM266.518 19.981V9.22168H267.719V10.2324C268.002 9.83691 268.322 9.5415 268.679 9.34619C269.035 9.146 269.467 9.0459 269.975 9.0459C270.639 9.0459 271.225 9.2168 271.733 9.55859C272.241 9.90039 272.624 10.3838 272.883 11.0088C273.142 11.6289 273.271 12.3101 273.271 13.0522C273.271 13.8481 273.127 14.5659 272.839 15.2056C272.556 15.8403 272.141 16.3286 271.594 16.6704C271.052 17.0073 270.48 17.1758 269.88 17.1758C269.44 17.1758 269.045 17.083 268.693 16.8975C268.347 16.7119 268.061 16.4775 267.836 16.1943V19.981H266.518ZM267.712 13.1548C267.712 14.1558 267.915 14.8955 268.32 15.374C268.725 15.8525 269.216 16.0918 269.792 16.0918C270.378 16.0918 270.878 15.8452 271.293 15.3521C271.713 14.854 271.923 14.085 271.923 13.0449C271.923 12.0537 271.718 11.3115 271.308 10.8184C270.903 10.3252 270.417 10.0786 269.851 10.0786C269.289 10.0786 268.791 10.3423 268.356 10.8696C267.927 11.3921 267.712 12.1538 267.712 13.1548ZM281.921 15.8208L282.111 16.9854C281.74 17.0635 281.408 17.1025 281.115 17.1025C280.637 17.1025 280.266 17.0269 280.002 16.8755C279.738 16.7241 279.553 16.5264 279.445 16.2822C279.338 16.0332 279.284 15.5132 279.284 14.7222V10.2471H278.317V9.22168H279.284V7.29541L280.595 6.50439V9.22168H281.921V10.2471H280.595V14.7954C280.595 15.1714 280.617 15.4131 280.661 15.5205C280.71 15.6279 280.786 15.7134 280.888 15.7769C280.996 15.8403 281.147 15.8721 281.342 15.8721C281.489 15.8721 281.682 15.855 281.921 15.8208ZM283.217 17V6.2627H284.536V10.1152C285.151 9.40234 285.927 9.0459 286.865 9.0459C287.441 9.0459 287.941 9.16064 288.366 9.39014C288.791 9.61475 289.094 9.92725 289.274 10.3276C289.46 10.728 289.553 11.3091 289.553 12.0708V17H288.234V12.0708C288.234 11.4116 288.09 10.9331 287.802 10.6353C287.519 10.3325 287.116 10.1812 286.594 10.1812C286.203 10.1812 285.834 10.2837 285.488 10.4888C285.146 10.689 284.902 10.9624 284.755 11.3091C284.609 11.6558 284.536 12.1343 284.536 12.7446V17H283.217ZM296.892 14.4951L298.254 14.6636C298.039 15.4595 297.641 16.0771 297.06 16.5166C296.479 16.9561 295.737 17.1758 294.833 17.1758C293.696 17.1758 292.792 16.8267 292.124 16.1284C291.459 15.4253 291.127 14.4414 291.127 13.1768C291.127 11.8682 291.464 10.8525 292.138 10.1299C292.812 9.40723 293.686 9.0459 294.76 9.0459C295.8 9.0459 296.65 9.3999 297.309 10.1079C297.968 10.8159 298.298 11.812 298.298 13.0962C298.298 13.1743 298.295 13.2915 298.291 13.4478H292.49C292.539 14.3022 292.78 14.9565 293.215 15.4106C293.649 15.8647 294.191 16.0918 294.841 16.0918C295.324 16.0918 295.737 15.9648 296.079 15.7109C296.42 15.457 296.691 15.0518 296.892 14.4951ZM292.563 12.3638H296.906C296.848 11.7095 296.682 11.2188 296.408 10.8916C295.988 10.3838 295.444 10.1299 294.775 10.1299C294.169 10.1299 293.659 10.3325 293.244 10.7378C292.834 11.1431 292.607 11.6851 292.563 12.3638ZM303.564 14.6782L304.868 14.4731C304.941 14.9956 305.144 15.396 305.476 15.6743C305.812 15.9526 306.281 16.0918 306.882 16.0918C307.487 16.0918 307.937 15.9697 308.229 15.7256C308.522 15.4766 308.669 15.186 308.669 14.854C308.669 14.5562 308.54 14.3218 308.281 14.1509C308.1 14.0337 307.651 13.8848 306.933 13.7041C305.966 13.46 305.295 13.25 304.919 13.0742C304.548 12.8936 304.265 12.647 304.069 12.3345C303.879 12.0171 303.784 11.668 303.784 11.2871C303.784 10.9404 303.862 10.6206 304.018 10.3276C304.179 10.0298 304.396 9.7832 304.67 9.58789C304.875 9.43652 305.153 9.30957 305.505 9.20703C305.861 9.09961 306.242 9.0459 306.647 9.0459C307.258 9.0459 307.792 9.13379 308.251 9.30957C308.715 9.48535 309.057 9.72461 309.277 10.0273C309.497 10.3252 309.648 10.7256 309.731 11.2285L308.442 11.4043C308.383 11.0039 308.212 10.6914 307.929 10.4668C307.651 10.2422 307.255 10.1299 306.743 10.1299C306.137 10.1299 305.705 10.23 305.446 10.4302C305.188 10.6304 305.058 10.8647 305.058 11.1333C305.058 11.3042 305.112 11.458 305.219 11.5947C305.327 11.7363 305.495 11.8535 305.725 11.9463C305.856 11.9951 306.245 12.1074 306.889 12.2832C307.822 12.5322 308.471 12.7373 308.837 12.8984C309.208 13.0547 309.499 13.2842 309.709 13.5869C309.919 13.8896 310.024 14.2656 310.024 14.7148C310.024 15.1543 309.895 15.5693 309.636 15.96C309.382 16.3457 309.013 16.646 308.53 16.8608C308.046 17.0708 307.5 17.1758 306.889 17.1758C305.878 17.1758 305.107 16.9658 304.575 16.5459C304.047 16.126 303.71 15.5034 303.564 14.6782ZM311.591 17V6.2627H312.91V10.1152C313.525 9.40234 314.301 9.0459 315.239 9.0459C315.815 9.0459 316.315 9.16064 316.74 9.39014C317.165 9.61475 317.468 9.92725 317.648 10.3276C317.834 10.728 317.927 11.3091 317.927 12.0708V17H316.608V12.0708C316.608 11.4116 316.464 10.9331 316.176 10.6353C315.893 10.3325 315.49 10.1812 314.968 10.1812C314.577 10.1812 314.208 10.2837 313.862 10.4888C313.52 10.689 313.276 10.9624 313.129 11.3091C312.983 11.6558 312.91 12.1343 312.91 12.7446V17H311.591ZM325.266 14.4951L326.628 14.6636C326.413 15.4595 326.015 16.0771 325.434 16.5166C324.853 16.9561 324.111 17.1758 323.208 17.1758C322.07 17.1758 321.167 16.8267 320.498 16.1284C319.833 15.4253 319.501 14.4414 319.501 13.1768C319.501 11.8682 319.838 10.8525 320.512 10.1299C321.186 9.40723 322.06 9.0459 323.134 9.0459C324.174 9.0459 325.024 9.3999 325.683 10.1079C326.342 10.8159 326.672 11.812 326.672 13.0962C326.672 13.1743 326.669 13.2915 326.665 13.4478H320.864C320.913 14.3022 321.154 14.9565 321.589 15.4106C322.023 15.8647 322.565 16.0918 323.215 16.0918C323.698 16.0918 324.111 15.9648 324.453 15.7109C324.794 15.457 325.065 15.0518 325.266 14.4951ZM320.937 12.3638H325.28C325.222 11.7095 325.056 11.2188 324.782 10.8916C324.362 10.3838 323.818 10.1299 323.149 10.1299C322.543 10.1299 322.033 10.3325 321.618 10.7378C321.208 11.1431 320.981 11.6851 320.937 12.3638ZM328.261 17V6.2627H329.58V17H328.261ZM334.509 15.8208L334.699 16.9854C334.328 17.0635 333.996 17.1025 333.703 17.1025C333.225 17.1025 332.854 17.0269 332.59 16.8755C332.326 16.7241 332.141 16.5264 332.033 16.2822C331.926 16.0332 331.872 15.5132 331.872 14.7222V10.2471H330.905V9.22168H331.872V7.29541L333.183 6.50439V9.22168H334.509V10.2471H333.183V14.7954C333.183 15.1714 333.205 15.4131 333.249 15.5205C333.298 15.6279 333.374 15.7134 333.476 15.7769C333.583 15.8403 333.735 15.8721 333.93 15.8721C334.077 15.8721 334.27 15.855 334.509 15.8208ZM341.13 14.4951L342.492 14.6636C342.277 15.4595 341.879 16.0771 341.298 16.5166C340.717 16.9561 339.975 17.1758 339.072 17.1758C337.934 17.1758 337.031 16.8267 336.362 16.1284C335.698 15.4253 335.366 14.4414 335.366 13.1768C335.366 11.8682 335.703 10.8525 336.376 10.1299C337.05 9.40723 337.924 9.0459 338.999 9.0459C340.039 9.0459 340.888 9.3999 341.547 10.1079C342.207 10.8159 342.536 11.812 342.536 13.0962C342.536 13.1743 342.534 13.2915 342.529 13.4478H336.728C336.777 14.3022 337.019 14.9565 337.453 15.4106C337.888 15.8647 338.43 16.0918 339.079 16.0918C339.562 16.0918 339.975 15.9648 340.317 15.7109C340.659 15.457 340.93 15.0518 341.13 14.4951ZM336.801 12.3638H341.145C341.086 11.7095 340.92 11.2188 340.646 10.8916C340.227 10.3838 339.682 10.1299 339.013 10.1299C338.408 10.1299 337.897 10.3325 337.482 10.7378C337.072 11.1431 336.845 11.6851 336.801 12.3638ZM344.14 17V9.22168H345.327V10.4009C345.629 9.84912 345.908 9.48535 346.162 9.30957C346.42 9.13379 346.704 9.0459 347.011 9.0459C347.456 9.0459 347.907 9.1875 348.366 9.4707L347.912 10.6938C347.59 10.5034 347.268 10.4082 346.945 10.4082C346.657 10.4082 346.398 10.4961 346.169 10.6719C345.939 10.8428 345.776 11.082 345.678 11.3896C345.532 11.8584 345.458 12.3711 345.458 12.9277V17H344.14Z" fill="#CDCDCD"/>
<path d="M392.818 13.2354L394.239 13.5942C393.941 14.7612 393.404 15.6523 392.628 16.2676C391.856 16.8779 390.912 17.1831 389.793 17.1831C388.636 17.1831 387.694 16.9487 386.966 16.48C386.244 16.0063 385.692 15.3228 385.311 14.4292C384.935 13.5356 384.747 12.5762 384.747 11.5508C384.747 10.4326 384.959 9.4585 385.384 8.62842C385.814 7.79346 386.422 7.16113 387.208 6.73145C387.999 6.29688 388.868 6.07959 389.815 6.07959C390.89 6.07959 391.793 6.35303 392.525 6.8999C393.258 7.44678 393.768 8.21582 394.056 9.20703L392.657 9.53662C392.408 8.75537 392.047 8.18652 391.573 7.83008C391.1 7.47363 390.504 7.29541 389.786 7.29541C388.961 7.29541 388.27 7.49316 387.713 7.88867C387.162 8.28418 386.773 8.81641 386.549 9.48535C386.324 10.1494 386.212 10.8354 386.212 11.5435C386.212 12.4565 386.344 13.2549 386.607 13.9385C386.876 14.6172 387.291 15.125 387.853 15.4619C388.414 15.7988 389.022 15.9673 389.676 15.9673C390.472 15.9673 391.146 15.7378 391.698 15.2788C392.25 14.8198 392.623 14.1387 392.818 13.2354ZM395.338 13.1108C395.338 11.6704 395.738 10.6035 396.539 9.91016C397.208 9.33398 398.023 9.0459 398.985 9.0459C400.055 9.0459 400.929 9.39746 401.607 10.1006C402.286 10.7988 402.625 11.7656 402.625 13.001C402.625 14.002 402.474 14.7905 402.171 15.3667C401.874 15.938 401.437 16.3823 400.86 16.6997C400.289 17.0171 399.664 17.1758 398.985 17.1758C397.896 17.1758 397.015 16.8267 396.341 16.1284C395.672 15.4302 395.338 14.4243 395.338 13.1108ZM396.693 13.1108C396.693 14.1069 396.91 14.854 397.345 15.3521C397.779 15.8452 398.326 16.0918 398.985 16.0918C399.64 16.0918 400.184 15.8428 400.619 15.3447C401.053 14.8467 401.271 14.0874 401.271 13.0669C401.271 12.105 401.051 11.3774 400.611 10.8843C400.177 10.3862 399.635 10.1372 398.985 10.1372C398.326 10.1372 397.779 10.3838 397.345 10.877C396.91 11.3701 396.693 12.1147 396.693 13.1108ZM404.178 17V9.22168H405.365V10.3276C405.936 9.47314 406.761 9.0459 407.84 9.0459C408.309 9.0459 408.739 9.13135 409.129 9.30225C409.525 9.46826 409.82 9.68799 410.016 9.96143C410.211 10.2349 410.348 10.5596 410.426 10.9355C410.475 11.1797 410.499 11.6069 410.499 12.2173V17H409.181V12.2686C409.181 11.7314 409.129 11.3311 409.027 11.0674C408.924 10.7988 408.741 10.5864 408.478 10.4302C408.219 10.269 407.914 10.1885 407.562 10.1885C407 10.1885 406.515 10.3667 406.104 10.7231C405.699 11.0796 405.497 11.7559 405.497 12.752V17H404.178ZM415.406 15.8208L415.597 16.9854C415.226 17.0635 414.894 17.1025 414.601 17.1025C414.122 17.1025 413.751 17.0269 413.487 16.8755C413.224 16.7241 413.038 16.5264 412.931 16.2822C412.823 16.0332 412.77 15.5132 412.77 14.7222V10.2471H411.803V9.22168H412.77V7.29541L414.081 6.50439V9.22168H415.406V10.2471H414.081V14.7954C414.081 15.1714 414.103 15.4131 414.146 15.5205C414.195 15.6279 414.271 15.7134 414.374 15.7769C414.481 15.8403 414.632 15.8721 414.828 15.8721C414.974 15.8721 415.167 15.855 415.406 15.8208ZM421.778 16.0405C421.29 16.4556 420.819 16.7485 420.365 16.9194C419.916 17.0903 419.432 17.1758 418.915 17.1758C418.06 17.1758 417.403 16.9683 416.944 16.5532C416.485 16.1333 416.256 15.5986 416.256 14.9492C416.256 14.5684 416.341 14.2217 416.512 13.9092C416.688 13.5918 416.915 13.3379 417.193 13.1475C417.477 12.957 417.794 12.813 418.146 12.7153C418.404 12.647 418.795 12.5811 419.317 12.5176C420.382 12.3906 421.166 12.2393 421.668 12.0635C421.673 11.8828 421.676 11.7681 421.676 11.7192C421.676 11.1821 421.551 10.8037 421.302 10.584C420.965 10.2861 420.465 10.1372 419.801 10.1372C419.181 10.1372 418.722 10.2471 418.424 10.4668C418.131 10.6816 417.914 11.0649 417.772 11.6167L416.483 11.4409C416.6 10.8892 416.793 10.4448 417.062 10.1079C417.33 9.76611 417.718 9.50488 418.226 9.32422C418.734 9.13867 419.322 9.0459 419.991 9.0459C420.655 9.0459 421.195 9.12402 421.61 9.28027C422.025 9.43652 422.33 9.63428 422.525 9.87354C422.721 10.1079 422.857 10.4058 422.936 10.7671C422.979 10.9917 423.001 11.397 423.001 11.9829V13.7407C423.001 14.9663 423.028 15.7427 423.082 16.0698C423.141 16.3921 423.253 16.7021 423.419 17H422.042C421.905 16.7266 421.817 16.4067 421.778 16.0405ZM421.668 13.0962C421.19 13.2915 420.472 13.4575 419.515 13.5942C418.973 13.6724 418.59 13.7603 418.365 13.8579C418.141 13.9556 417.967 14.0996 417.845 14.29C417.723 14.4756 417.662 14.6831 417.662 14.9126C417.662 15.2642 417.794 15.5571 418.058 15.7915C418.326 16.0259 418.717 16.1431 419.229 16.1431C419.737 16.1431 420.189 16.0332 420.584 15.8135C420.98 15.5889 421.271 15.2837 421.456 14.8979C421.598 14.6001 421.668 14.1606 421.668 13.5796V13.0962ZM430.128 14.1509L431.424 14.3193C431.283 15.2129 430.919 15.9136 430.333 16.4214C429.752 16.9243 429.037 17.1758 428.187 17.1758C427.123 17.1758 426.266 16.8291 425.616 16.1357C424.972 15.4375 424.649 14.439 424.649 13.1401C424.649 12.3003 424.789 11.5654 425.067 10.9355C425.345 10.3057 425.768 9.83447 426.334 9.52197C426.905 9.20459 427.525 9.0459 428.194 9.0459C429.039 9.0459 429.73 9.26074 430.267 9.69043C430.804 10.1152 431.148 10.7207 431.3 11.5068L430.018 11.7046C429.896 11.1821 429.679 10.7891 429.366 10.5254C429.059 10.2617 428.685 10.1299 428.246 10.1299C427.582 10.1299 427.042 10.3691 426.627 10.8477C426.212 11.3213 426.004 12.0732 426.004 13.1035C426.004 14.1484 426.205 14.9077 426.605 15.3813C427.005 15.855 427.528 16.0918 428.172 16.0918C428.69 16.0918 429.122 15.9331 429.469 15.6157C429.815 15.2983 430.035 14.8101 430.128 14.1509ZM435.431 15.8208L435.621 16.9854C435.25 17.0635 434.918 17.1025 434.625 17.1025C434.146 17.1025 433.775 17.0269 433.512 16.8755C433.248 16.7241 433.062 16.5264 432.955 16.2822C432.848 16.0332 432.794 15.5132 432.794 14.7222V10.2471H431.827V9.22168H432.794V7.29541L434.105 6.50439V9.22168H435.431V10.2471H434.105V14.7954C434.105 15.1714 434.127 15.4131 434.171 15.5205C434.22 15.6279 434.295 15.7134 434.398 15.7769C434.505 15.8403 434.657 15.8721 434.852 15.8721C434.999 15.8721 435.191 15.855 435.431 15.8208ZM436.2 14.6782L437.503 14.4731C437.577 14.9956 437.779 15.396 438.111 15.6743C438.448 15.9526 438.917 16.0918 439.518 16.0918C440.123 16.0918 440.572 15.9697 440.865 15.7256C441.158 15.4766 441.305 15.186 441.305 14.854C441.305 14.5562 441.175 14.3218 440.917 14.1509C440.736 14.0337 440.287 13.8848 439.569 13.7041C438.602 13.46 437.931 13.25 437.555 13.0742C437.184 12.8936 436.9 12.647 436.705 12.3345C436.515 12.0171 436.419 11.668 436.419 11.2871C436.419 10.9404 436.498 10.6206 436.654 10.3276C436.815 10.0298 437.032 9.7832 437.306 9.58789C437.511 9.43652 437.789 9.30957 438.141 9.20703C438.497 9.09961 438.878 9.0459 439.283 9.0459C439.894 9.0459 440.428 9.13379 440.887 9.30957C441.351 9.48535 441.693 9.72461 441.913 10.0273C442.132 10.3252 442.284 10.7256 442.367 11.2285L441.078 11.4043C441.019 11.0039 440.848 10.6914 440.565 10.4668C440.287 10.2422 439.891 10.1299 439.378 10.1299C438.773 10.1299 438.341 10.23 438.082 10.4302C437.823 10.6304 437.694 10.8647 437.694 11.1333C437.694 11.3042 437.748 11.458 437.855 11.5947C437.962 11.7363 438.131 11.8535 438.36 11.9463C438.492 11.9951 438.88 12.1074 439.525 12.2832C440.458 12.5322 441.107 12.7373 441.473 12.8984C441.844 13.0547 442.135 13.2842 442.345 13.5869C442.555 13.8896 442.66 14.2656 442.66 14.7148C442.66 15.1543 442.53 15.5693 442.271 15.96C442.018 16.3457 441.649 16.646 441.166 16.8608C440.682 17.0708 440.135 17.1758 439.525 17.1758C438.514 17.1758 437.743 16.9658 437.21 16.5459C436.683 16.126 436.346 15.5034 436.2 14.6782Z" fill="#CDCDCD"/>
</svg>
